<?xml version="1.0" encoding="utf-8"?>
<!-- Generator: Adobe Illustrator 26.0.2, SVG Export Plug-In . SVG Version: 6.00 Build 0)  -->
<svg version="1.1" xmlns="http://www.w3.org/2000/svg" xmlns:xlink="http://www.w3.org/1999/xlink" x="0px" y="0px"
	 viewBox="0 0 128 128" style="enable-background:new 0 0 128 128;" xml:space="preserve">
<style type="text/css">
	.st0{fill:#FFFFFF;stroke:#000000;stroke-miterlimit:10;}
	.st1{fill:#461B89;}
</style>
<g id="Layer_2">
	<rect x="11" y="13.9" class="st0" width="107" height="98"/>
</g>
<g id="Layer_1">
	<path class="st1" d="M87,52.4c-7.5,0.9-7.5,9.2-7.5,9.2h14.9C94.5,61.6,95.2,52.4,87,52.4z M38.2,63.1H51l-6.4-24.4L38.2,63.1z"/>
	<path class="st1" d="M0,0v128h128V0H0z M57.5,88.6L53,72.5H36.2l-4.4,16.1h-9.4l16-54.9v-3.8h12.2l17.3,58.7H57.5z M103.5,69h-24
		c1.9,19.2,21.2,10,21.2,10v8c0,0-1.3,2.6-14.8,2.6S69.6,71.3,69.6,71.3v-4.7c0,0,1.3-22,17.3-22s16.5,14.6,16.5,14.6V69H103.5z"/>
</g>
</svg>
