<?xml version="1.0" encoding="utf-8"?>
<!-- Generator: Adobe Illustrator 26.0.2, SVG Export Plug-In . SVG Version: 6.00 Build 0)  -->
<svg version="1.1" id="Layer_1" xmlns="http://www.w3.org/2000/svg" xmlns:xlink="http://www.w3.org/1999/xlink" x="0px" y="0px"
	 viewBox="0 0 128 128" style="enable-background:new 0 0 128 128;" xml:space="preserve">
<style type="text/css">
	.st0{fill:#613B6D;}
</style>
<path class="st0" d="M50.3,38.5h-7.4v20.7h7.4c5,0,9.1-4.1,9.1-9.1v-2.4C59.4,42.6,55.3,38.5,50.3,38.5z"/>
<path class="st0" d="M0,0v128h128V0H0z M51.2,67.5h-8.3v21.3h-9.6V30.3h18.5c9.4-0.1,17.1,7.4,17.2,16.8v2.3
	C69,59.3,61,67.4,51.2,67.5z M97.3,53.3c0,0-7,0-10.1,1.3v34.2H77.1V48.9c0,0,10.2-5.1,20.2-3.8C97.3,45.1,97.3,53.3,97.3,53.3z"/>
</svg>
