<?xml version="1.0" encoding="UTF-8" standalone="no"?>
<!-- Created with Inkscape (http://www.inkscape.org/) -->

<svg
   width="200mm"
   height="200mm"
   viewBox="0 0 200 200"
   version="1.1"
   id="svg862"
   inkscape:version="1.1.2 (b8e25be833, 2022-02-05)"
   xmlns:inkscape="http://www.inkscape.org/namespaces/inkscape"
   xmlns:sodipodi="http://sodipodi.sourceforge.net/DTD/sodipodi-0.dtd"
   xmlns="http://www.w3.org/2000/svg"
   xmlns:svg="http://www.w3.org/2000/svg">
  <sodipodi:namedview
     id="namedview864"
     pagecolor="#ffffff"
     bordercolor="#cccccc"
     borderopacity="1"
     inkscape:pageshadow="0"
     inkscape:pageopacity="1"
     inkscape:pagecheckerboard="0"
     inkscape:document-units="mm"
     showgrid="false"
     inkscape:zoom="0.64052329"
     inkscape:cx="396.55076"
     inkscape:cy="560.47923"
     inkscape:window-width="1920"
     inkscape:window-height="1017"
     inkscape:window-x="-8"
     inkscape:window-y="-8"
     inkscape:window-maximized="1"
     inkscape:current-layer="layer1" />
  <defs
     id="defs859" />
  <g
     inkscape:label="Camada 1"
     inkscape:groupmode="layer"
     id="layer1">
    <path
       fill-rule="evenodd"
       clip-rule="evenodd"
       fill="#cb6699"
       d="m 3.666889,88.038473 c 0,1.07875 0.3176524,1.79079 0.4956468,2.48287 1.1600959,4.50073 3.6536869,8.36313 6.6122392,11.886357 4.213787,5.02096 9.374372,9.06287 14.660782,12.86385 4.585139,3.29618 9.263886,6.51863 13.867439,9.79022 0.790274,0.56141 1.537584,1.20768 2.395379,1.89669 -0.7381,0.39902 -1.351911,0.75037 -1.990266,1.07417 -6.075159,3.08129 -11.920138,6.53551 -17.307829,10.72015 -3.247038,2.52272 -6.386658,5.20353 -8.604037,8.70682 -3.567758,5.63475 -4.8306653,11.63778 -2.171346,18.04749 0.776465,1.8721 1.961117,3.48948 3.632205,4.68487 0.541697,0.38684 1.149354,0.77032 1.783111,0.92071 1.623519,0.3822 3.27773,0.63223 4.9212,0.93451 l 4.65419,-0.003 c 5.14677,-0.45876 9.831653,-2.222 14.065391,-5.14369 6.616839,-4.56672 11.074609,-10.68946 12.991224,-18.54772 1.393344,-5.71148 1.450118,-11.42911 -0.191798,-17.11449 a 17.947719,17.947719 0 0 0 -0.543204,-1.55601 c -0.199512,-0.51096 -0.434286,-1.00817 -0.710482,-1.64499 l 10.551344,-6.06747 0.158044,0.13514 c -0.191798,0.62765 -0.395891,1.25373 -0.569304,1.88747 -1.253698,4.57902 -2.086942,9.23779 -1.78771,13.99022 0.319161,5.06388 1.732467,9.80402 4.697156,14.03465 2.396904,3.42202 8.108384,3.54939 10.655693,0.11541 0.903833,-1.21998 1.780002,-2.49511 2.438331,-3.85625 1.720207,-3.55241 3.312993,-7.16774 4.956469,-10.75849 l 0.287087,-0.65682 c -0.118315,1.70026 -0.256349,3.19335 -0.318986,4.688 -0.09802,2.33399 0.0406,4.65418 0.836266,6.87462 0.682863,1.89971 1.844495,3.31914 4.020446,3.56928 1.488507,0.17052 2.674672,-0.51095 3.768795,-1.37494 a 15.934432,15.934432 0 0 0 4.129368,-4.90891 c 2.91716,-5.357 5.912497,-10.68176 8.556487,-16.17383 2.86032,-5.94011 5.36158,-12.05363 8.01787,-18.095 l 0.43904,-1.07109 c 0.62759,2.46594 1.06495,4.8813 1.87059,7.16774 0.93602,2.65315 2.09458,5.24344 3.35597,7.76157 0.59691,1.18924 0.52778,1.96113 -0.29927,2.95857 -3.46187,4.17385 -6.86395,8.39839 -10.26904,12.61829 -0.75345,0.9315 -1.50382,1.87982 -2.13141,2.89721 a 5.67925,5.67925 0 0 0 -0.73657,2.09307 2.6654572,2.6654572 0 0 0 2.12225,3.02451 14.824976,14.824976 0 0 0 4.15546,0.29637 c 4.75238,-0.34972 9.06745,-2.01791 12.8823,-4.84447 4.94266,-3.66139 6.52936,-8.65776 5.3324,-14.57948 -0.32362,-1.60665 -0.89612,-3.16875 -1.45318,-4.71711 -0.24997,-0.69817 -0.26679,-1.18767 0.18907,-1.83835 3.95137,-5.6424 7.32729,-11.62856 10.46693,-17.75281 0.12411,-0.24069 0.25171,-0.48196 0.46978,-0.73964 1.01739,5.29407 2.54882,10.39635 5.29256,15.026 -1.39948,1.34885 -2.78515,2.57184 -4.03883,3.91912 -2.76062,2.96779 -5.15447,6.19025 -6.40356,10.12016 -0.53706,1.69411 -0.94989,3.41583 -0.71047,5.22506 0.37118,2.80969 2.6731,4.63574 5.4368,3.99585 5.91401,-1.3688 11.01936,-4.15546 14.74976,-9.09198 2.51048,-3.32378 2.7391,-7.03115 1.68796,-10.91501 -0.28825,-1.05579 -0.63067,-2.09464 -0.99895,-3.3054 1.45933,-0.45238 2.88184,-0.99588 4.35341,-1.33197 7.64036,-1.74317 15.1979,-1.43933 22.56051,1.31973 4.29814,1.61123 7.7708,4.30736 9.83012,8.54878 2.51506,5.18515 1.1248,10.10479 -3.76265,13.38252 -0.45586,0.30507 -0.97749,0.54634 -1.355,0.92837 a 1.3334959,1.3334959 0 0 0 -0.31434,1.02812 c 0.0348,0.18907 0.53067,0.42512 0.81788,0.42222 1.60664,-0.0116 2.90944,-0.85477 4.1601,-1.7202 3.13349,-2.1683 5.41993,-5.0854 5.9125,-8.92629 l 0.0969,-0.28882 -0.11832,-2.50126 c -0.0464,-0.14442 0.0348,-0.28709 0.0232,-0.39613 -0.66598,-5.59334 -3.65367,-9.93138 -7.99942,-13.33189 -5.03326,-3.93606 -10.97644,-5.55651 -17.26181,-5.81274 a 38.978285,38.978285 0 0 0 -14.98458,2.30639 c -1.37646,0.49878 -2.74062,1.08948 -4.12479,1.64655 -0.18559,-0.33581 -0.3851,-0.65833 -0.54923,-0.9913 -1.42094,-2.90944 -3.14271,-5.69002 -3.52324,-9.02604 -0.27026,-2.36931 -0.60155,-4.73555 -0.0406,-7.078767 0.54169,-2.25419 1.24758,-4.47004 1.912,-6.69355 0.34219,-1.14475 0.1015,-1.78615 -0.99129,-2.30175 a 4.3795135,4.3795135 0 0 0 -1.20612,-0.39612 c -2.6854,-0.38974 -5.33397,-0.16703 -7.93499,0.58926 -0.92071,0.26852 -1.58977,0.78418 -1.79386,1.80308 -0.11658,0.58462 -0.35437,1.14476 -0.52024,1.72171 -0.67979,2.39843 -1.16163,4.84297 -2.26034,7.12784 -2.75297,5.731427 -5.89562,11.246477 -9.11199,16.721667 -0.34856,0.59077 -0.71505,1.1708 -1.15397,1.88742 -1.12939,-2.36317 -2.334,-4.48385 -2.69921,-6.96974 -0.41294,-2.81126 -0.73808,-5.61787 -0.0406,-8.40767 0.52024,-2.08078 1.19997,-4.123217 1.82605,-6.176387 0.29637,-0.97598 0.1595,-1.4885 -0.72427,-2.00259 -0.44658,-0.25925 -0.95139,-0.4895 -1.45475,-0.5649 a 17.86639,17.86639 0 0 0 -8.21581,0.67208 c -0.8332,0.27027 -1.27056,0.80871 -1.52528,1.66806 -0.74886,2.53502 -1.38718,5.131387 -2.43833,7.542117 -4.25679,9.75953 -8.6363,19.46843 -13.011217,29.17582 -0.913,2.02708 -1.98259,3.98362 -3.012221,5.95699 -0.260989,0.50052 -0.641453,0.94066 -0.966761,1.41021 -0.260988,-0.30855 -0.361904,-0.52024 -0.360744,-0.73193 0.0058,-1.24759 -0.140934,-2.532 0.09686,-3.73812 a 264.22707,264.22707 0 0 1 2.421446,-10.89355 c 0.72126,-2.98618 1.5606,-5.94469 2.3601,-8.91092 0.26853,-0.99286 0.27317,-1.92122 -0.4402,-2.75598 -1.19846,-1.39797 -3.702794,-1.7049 -5.188226,-0.62765 l -0.656764,0.37118 0.127594,-1.0588 c 0.313187,-2.26956 0.375824,-4.53146 -0.247069,-6.76721 -0.776471,-2.78672 -2.765206,-4.39029 -5.656208,-4.30127 -1.347341,0.0406 -2.762132,0.27143 -4.009717,0.76267 -5.246513,2.05624 -9.280763,5.69762 -12.715028,10.07869 a 3.9774699,3.9774699 0 0 1 -1.161633,1.00359 c -4.43931,2.46136 -8.892481,4.89203 -13.344116,7.33193 l -4.95496,2.71452 c -1.328891,-1.26748 -2.536556,-2.58257 -3.906881,-3.69816 -4.184631,-3.41274 -8.436777,-6.74116 -12.650564,-10.11552 -3.735017,-2.99081 -7.353407,-6.10586 -10.121675,-10.066447 -2.059324,-2.94628 -3.386684,-6.1703 -3.514047,-9.81324 -0.161117,-4.64195 1.155491,-8.883308 3.518646,-12.831663 3.023005,-5.051642 7.146251,-9.105843 11.679216,-12.777898 4.795368,-3.882354 9.98204,-7.178469 15.357453,-10.18767 7.520672,-4.20917 15.256179,-7.934989 23.550218,-10.394838 8.504293,-2.522718 17.132874,-3.96674 26.033111,-2.960077 3.498697,0.396123 6.896077,1.196895 10.015767,2.907879 2.38926,1.308946 4.34882,3.023005 5.26031,5.702317 0.89926,2.636277 0.87165,5.307875 0.24881,7.98562 -1.26602,5.423 -4.23527,9.893043 -7.97181,13.887391 -6.12889,6.547746 -13.605056,11.005551 -22.021888,13.950259 a 60.579692,60.579692 0 0 1 -14.984587,3.19642 c -4.187653,0.35146 -8.287881,-0.0174 -12.253079,-1.47621 -2.625559,-0.9652 -4.911989,-2.44141 -6.750343,-4.583605 -0.328382,-0.383364 -0.74884,-0.799496 -1.361114,-0.440201 -0.599996,0.353204 -0.705882,0.923784 -0.504869,1.502256 0.336038,0.96061 0.646029,1.96112 1.1693,2.82047 1.315082,2.156 3.233228,3.71967 5.344727,5.06081 4.055731,2.57955 8.588696,3.44656 13.288919,3.64758 7.132419,0.30855 14.091484,-0.75652 20.952301,-2.67009 9.794786,-2.73145 18.311373,-7.55598 25.141513,-15.167165 5.68695,-6.337563 9.7488,-13.489933 10.61888,-22.126228 0.42512,-4.215318 -0.029,-8.344683 -2.00103,-12.190209 -2.14063,-4.166194 -5.54421,-7.264364 -9.61373,-9.398904 -5.9263,-3.107391 -12.32221,-4.916566 -18.923657,-4.916566 h -6.613801 c -7.994842,0 -15.724172,2.291018 -23.237176,5.023977 -5.686924,2.070106 -11.263362,4.513019 -16.677141,7.216864 C 35.98454,46.084644 25.005064,53.187948 15.986704,62.955137 11.493637,67.821129 7.6895677,73.190365 5.5013437,79.512617 A 62.138758,62.138758 0 0 0 3.7964613,85.260853 M 46.515898,140.52344 c -0.511016,6.84238 -3.612253,12.38966 -8.680767,16.88273 -2.851135,2.52585 -6.121192,4.3243 -9.92986,4.95653 -1.381066,0.22851 -2.794361,0.28361 -4.133994,-0.28825 -1.910473,-0.81631 -2.338605,-2.51199 -2.375433,-4.31809 -0.05684,-2.87876 0.951403,-5.48134 2.334,-7.95801 1.804593,-3.22867 4.450103,-5.69002 7.275151,-7.9887 4.450103,-3.62304 9.277695,-6.68897 14.221908,-9.5831 l 0.372867,-0.1537 c 0.764186,2.82356 1.127872,5.61179 0.916105,8.45065 z m 38.60536,-29.73747 c -0.360745,2.18517 -0.811733,4.37185 -1.450112,6.48951 -2.206632,7.33037 -5.040855,14.43367 -8.105328,21.4418 -0.566055,1.29665 -1.390258,2.4798 -2.106876,3.70894 a 2.5918004,2.5918004 0 0 1 -0.434401,0.5127 c -0.886898,0.87623 -1.727862,0.83018 -2.175893,-0.31608 -0.521978,-1.33198 -0.842472,-2.75755 -1.118714,-4.16776 -0.185592,-0.94681 -0.140934,-1.94118 -0.199512,-2.91102 0.05974,-6.89613 2.163656,-13.16305 5.732939,-18.99732 1.471629,-2.40614 3.073637,-4.69866 5.52119,-6.22093 a 9.6214262,9.6214262 0 0 1 2.447554,-1.08339 c 1.304364,-0.36654 2.105368,0.23663 1.888979,1.54372 z m 26.338472,33.55684 9.46647,-11.05311 c 0.39438,4.10483 -6.58313,12.29913 -9.46647,11.05311 z m 30.23463,-7.43778 c -0.66906,0.38337 -1.39798,0.65984 -2.08391,1.01432 -0.62759,0.32537 -0.83476,-0.003 -0.85315,-0.54343 a 3.6598247,3.6598247 0 0 1 0.14268,-1.10636 c 1.27826,-4.50844 3.6307,-8.35698 7.13091,-11.4874 l 0.24533,-0.12585 c 1.66499,4.65725 -0.25925,9.77182 -4.58204,12.24855 z"
       id="path2"
       style="stroke-width:1.53452" />
  </g>
</svg>
